<svg class="icon" viewBox="0 0 1024 1024" xmlns="http://www.w3.org/2000/svg" width="16" height="16"><defs><style/></defs><path d="M320 512H192c-70.4 0-128 57.6-128 128v128c0 70.4 57.6 128 128 128h128c70.4 0 128-57.6 128-128V640c0-70.4-57.6-128-128-128zm64 256c0 35.2-28.8 64-64 64H192c-35.2 0-64-28.8-64-64V640c0-35.2 28.8-64 64-64h128c35.2 0 64 28.8 64 64v128zM768 64H640c-70.4 0-128 57.6-128 128v128c0 70.4 57.6 128 128 128h128c70.4 0 128-57.6 128-128V192c0-70.4-57.6-128-128-128zm64 256c0 35.2-28.8 64-64 64H640c-35.2 0-64-28.8-64-64V192c0-35.2 28.8-64 64-64h128c35.2 0 64 28.8 64 64v128zm-64 192H640c-70.4 0-128 57.6-128 128v128c0 70.4 57.6 128 128 128h128c70.4 0 128-57.6 128-128V640c0-70.4-57.6-128-128-128zm64 256c0 35.2-28.8 64-64 64H640c-35.2 0-64-28.8-64-64V640c0-35.2 28.8-64 64-64h128c35.2 0 64 28.8 64 64v128zM320 64H192c-70.4 0-128 57.6-128 128v128c0 70.4 57.6 128 128 128h128c70.4 0 128-57.6 128-128V192c0-70.4-57.6-128-128-128zm64 256c0 35.2-28.8 64-64 64H192c-35.2 0-64-28.8-64-64V192c0-35.2 28.8-64 64-64h128c35.2 0 64 28.8 64 64v128z"/></svg>