<svg class="icon" viewBox="0 0 1024 1024" xmlns="http://www.w3.org/2000/svg" width="16" height="16"><defs><style/></defs><path d="M521.31 965.818l-16.292-11.636c-13.963-11.637-370.036-316.51-370.036-521.31 0-207.127 169.89-374.69 377.018-374.69S889.018 228.072 889.018 435.2c0 202.473-339.782 507.345-353.745 521.31l-13.964 9.308zM512 100.073c-183.855 0-332.8 148.945-332.8 332.8 0 162.909 274.618 416.582 339.782 474.763C584.145 847.127 844.8 593.455 844.8 432.873c0-183.855-148.945-332.8-332.8-332.8z"/><path d="M514.327 593.455c-88.436 0-160.582-72.146-160.582-160.582S425.891 272.29 514.327 272.29 674.91 344.436 674.91 432.873s-72.145 160.582-160.582 160.582zm0-274.619c-62.836 0-116.363 51.2-116.363 116.364 0 62.836 51.2 116.364 116.363 116.364s116.364-51.2 116.364-116.364-51.2-116.364-116.364-116.364z"/></svg>