<svg class="icon" viewBox="0 0 1024 1024" xmlns="http://www.w3.org/2000/svg" width="16" height="16"><defs><style/></defs><path d="M914.944 820.8l67.2 67.2a32.64 32.64 0 01.32 45.568 32 32 0 01-45.632-.32L870.848 867.2a160 160 0 1144.16-46.4zm-331.84-136a738.752 738.752 0 00-4.48-.448 31.104 31.104 0 01-27.648-31.936l1.344-62.72a31.552 31.552 0 0114.848-26.176c72.96-44.928 106.88-130.944 106.88-270.72 0-142.848-98.112-172.8-180.352-172.8h-8.128c-82.24 0-180.288 29.952-180.288 172.8 0 137.344 35.392 225.92 108.16 270.72a31.424 31.424 0 0114.848 26.88v62.72a31.104 31.104 0 01-27.648 31.232c-149.312 15.232-248.384 71.232-248.384 101.568 0 97.6 183.488 118.08 337.408 118.08 39.936 0 81.856-1.408 121.984-5.12v55.936C574.72 958.272 534.08 960 489.664 960 228.416 960 96 900.096 96 781.888c0-84.416 136.512-139.648 272.512-158.336v-17.536C286.848 547.776 247.04 446.08 247.04 296.064 247.04 150.784 336.256 64 485.632 64h8.064c149.376 0 238.528 86.784 238.528 232.064 0 56.448 0 223.808-120.448 310.144l-.384 17.408h.256V684.8h-28.544zM779.264 832a96 96 0 100-192 96 96 0 000 192z" fill="#333"/></svg>