<?xml version="1.0" standalone="no"?><!DOCTYPE svg PUBLIC "-//W3C//DTD SVG 1.1//EN" "http://www.w3.org/Graphics/SVG/1.1/DTD/svg11.dtd"><svg t="1561625184711" class="icon" viewBox="0 0 1024 1024" version="1.1" xmlns="http://www.w3.org/2000/svg" p-id="4111" xmlns:xlink="http://www.w3.org/1999/xlink" width="16" height="16"><defs><style type="text/css"></style></defs><path d="M521.309091 965.818182l-16.290909-11.636364c-13.963636-11.636364-370.036364-316.509091-370.036364-521.309091C134.981818 225.745455 304.872727 58.181818 512 58.181818s377.018182 169.890909 377.018182 377.018182c0 202.472727-339.781818 507.345455-353.745455 521.309091l-13.963636 9.309091zM512 100.072727c-183.854545 0-332.8 148.945455-332.8 332.8 0 162.909091 274.618182 416.581818 339.781818 474.763637 65.163636-60.509091 325.818182-314.181818 325.818182-474.763637 0-183.854545-148.945455-332.8-332.8-332.8z" p-id="4112"></path><path d="M514.327273 593.454545c-88.436364 0-160.581818-72.145455-160.581818-160.581818s72.145455-160.581818 160.581818-160.581818 160.581818 72.145455 160.581818 160.581818-72.145455 160.581818-160.581818 160.581818z m0-274.618181c-62.836364 0-116.363636 51.2-116.363637 116.363636 0 62.836364 51.2 116.363636 116.363637 116.363636s116.363636-51.2 116.363636-116.363636-51.2-116.363636-116.363636-116.363636z" p-id="4113"></path></svg>