<svg class="icon" viewBox="0 0 1024 1024" xmlns="http://www.w3.org/2000/svg" width="16" height="16"><defs><style/></defs><path d="M631.647 362.657v.009c.018-.195.027-.372.035-.549l-.035.54zm204.361 111.32c-21.37-38.87-54.067-60.835-98.629-62.91-26.978-1.254-54.052-.487-81.082-.627-1.206-.008-2.41-.004-3.672-.004.06-.62.067-.955.13-1.28 3.827-19.29 6.21-38.765 7.808-58.355 1.52-18.596 2.558-37.223 2.882-55.867.275-16.065 1.802-32.23-.516-48.187-4.205-28.92-19.566-50.585-45.704-63.573-28.634-14.23-57.126-12.36-83.976 4.913-19.97 12.851-32.03 31.53-36.571 54.954-1.93 9.954-1.514 20.015-1.483 30.052.084 26.758-4.829 52.557-17.328 76.244-32.419 61.427-83.576 93.305-153.205 94.604-26.91.5-53.839.092-80.757.073-7.982-.005-15.837.93-23.371 3.6-28.581 10.13-46.042 34.913-46.053 65.448-.033 89.028-.004 178.055-.017 267.083 0 9.134 1.212 18.104 4.897 26.474 11.277 25.615 30.775 40.86 58.896 42.028 29.104 1.207 58.297.408 87.45.456 2.797.004 5.559-.416 8.093-1.747 7.036-3.701 9.53-9.782 9.526-17.432-.04-114.499-.028-228.993-.008-343.491.004-3.098-1.287-7.124.544-9.034 1.606-1.68 5.648-1.004 8.606-1.407 31.31-4.278 60.271-14.886 86.46-32.634 38.116-25.822 64.718-60.535 79.575-104.162 7.86-23.072 10.816-46.864 10.505-71.155-.075-5.792-.268-11.584.571-17.384 4.19-28.941 33.406-48.603 61.759-41.444 23.444 5.916 38.886 25.782 38.846 50.153-.053 30.168-.832 60.316-3.462 90.375-2.118 24.228-4.549 48.436-12.391 71.691-.976 2.883-1.292 5.897-.636 8.91 1.878 8.623 8.498 13.636 18.06 13.68 32.506.163 65.011.344 97.517.443 11.12.036 22.037 1.059 32.507 5.189 41.359 16.317 62.933 60.627 50.425 103.378-5.192 17.748-11.304 35.184-17.524 52.58-21.733 60.799-45.337 120.89-68.794 181.037-3.209 8.227-8.918 14.29-15.92 19.323-10.35 7.443-22.234 9.353-34.597 9.353-81.541.017-163.086.009-244.63.013-1.563 0-3.138-.032-4.685.136-12.503 1.367-19.311 14.937-12.752 25.558 3.858 6.24 9.822 8.106 16.905 8.102 82.213-.071 164.43-.048 246.64-.048 20.215 0 38.839-5.167 55.055-17.535 10.594-8.083 19.487-17.652 24.428-30.372 8.994-23.136 18.12-46.216 27.073-69.369 19.631-50.769 39.098-101.599 56.238-153.284 4.605-13.882 8.874-27.869 9.686-42.579 1.2-21.829-2.739-42.723-13.319-61.97zM305.892 815.426c-20.774-.128-41.553-.048-62.327-.072-20.594-.025-35.352-14.53-35.363-35.088-.06-89.132-.065-178.264.004-267.391.011-20.23 14.546-34.885 34.757-35.056 21.217-.185 42.442.019 63.664-.116 2.918-.017 2.874 1.334 2.874 3.433-.036 55.179-.028 110.357-.028 165.532 0 55.066-.032 110.13.08 165.196.008 3.034-.824 3.581-3.661 3.562zm0 0" fill="#00a36b"/></svg>